<svg xmlns="http://www.w3.org/2000/svg" viewBox="0 0 35 35"><title>meeting-room</title><g id="Layer_2" data-name="Layer 2"><path d="M23.52,19.57a.66.66,0,0,0,.65-.65V16.5a.66.66,0,0,0-.65-.65H22.13V14.33A6.41,6.41,0,0,0,19.57,9a3.61,3.61,0,1,0-4.14,0,6.41,6.41,0,0,0-2.56,5.38v1.52H11.48a.65.65,0,0,0-.65.65v2.42a.65.65,0,0,0,.65.65H13l2.2,12.49a.64.64,0,0,0,.64.54h3.38a.64.64,0,0,0,.64-.54L22,19.57ZM15.19,6A2.31,2.31,0,1,1,17.5,8.31,2.31,2.31,0,0,1,15.19,6Zm-1,8.33c0-2.56,1.53-4.72,3.33-4.72s3.33,2.16,3.33,4.72v1.52H14.17Zm-2,2.82H22.87v1.12H12.13ZM18.65,31.3h-2.3L14.29,19.57h6.42Z"/><path d="M30.86,11a3.61,3.61,0,1,0-4.11,0,3.58,3.58,0,0,0-1.55,2.95v6.9H23.51a.65.65,0,0,0-.64.53l-1.81,10.5a.67.67,0,0,0,.14.53.66.66,0,0,0,.5.23h2.85a.65.65,0,0,0,.62-.45l2.15-6.85h2.3a2.79,2.79,0,0,0,2.79-2.79v-8.6A3.6,3.6,0,0,0,30.86,11ZM26.5,8a2.31,2.31,0,1,1,2.31,2.31h0A2.31,2.31,0,0,1,26.5,8Zm4.61,14.51A1.49,1.49,0,0,1,29.62,24H26.85a.64.64,0,0,0-.62.45L24.07,31.3h-1.6l1.59-9.2h1.79a.65.65,0,0,0,.65-.64V13.91a2.3,2.3,0,0,1,2.3-2.3h0a2.3,2.3,0,0,1,2.3,2.3Z"/><path d="M11.49,20.81H9.8v-6.9A3.58,3.58,0,0,0,8.25,11a3.61,3.61,0,1,0-4.11,0,3.6,3.6,0,0,0-1.55,2.95v8.6A2.79,2.79,0,0,0,5.38,25.3H7.67l2.16,6.85a.65.65,0,0,0,.62.45H13.3a.66.66,0,0,0,.5-.23.67.67,0,0,0,.14-.53l-1.81-10.5A.65.65,0,0,0,11.49,20.81ZM3.89,8A2.31,2.31,0,1,1,6.2,10.31h0A2.31,2.31,0,0,1,3.89,8Zm7,23.3L8.77,24.45A.65.65,0,0,0,8.15,24H5.38a1.49,1.49,0,0,1-1.49-1.49v-8.6a2.3,2.3,0,0,1,2.3-2.3h0a2.3,2.3,0,0,1,2.3,2.3v7.55a.65.65,0,0,0,.65.64h1.79l1.59,9.2Z"/></g></svg>