<?xml version="1.0" encoding="utf-8"?>
<!-- Generator: Adobe Illustrator 22.1.0, SVG Export Plug-In . SVG Version: 6.00 Build 0)  -->
<svg version="1.1" id="Layer_1" xmlns="http://www.w3.org/2000/svg" xmlns:xlink="http://www.w3.org/1999/xlink" x="0px" y="0px"
	 viewBox="0 0 63.9 78.9" style="enable-background:new 0 0 63.9 78.9;" xml:space="preserve">
<style type="text/css">
	.st0{fill:#EF4223;}
</style>
<path class="st0" d="M62.2,21.2L34.7,1.1c-1.5-1.5-4-1.5-5.5,0l-27.4,20l0,0c-1.1,1-1.8,2.4-1.8,4v29.5c0,1.4,0.6,2.7,1.5,3.6l0,0
	l0,0c0.1,0.1,0.1,0.1,0.2,0.2l28.2,20.2c0.8,0.7,2,0.2,2-0.9v-18h26.8c2.9,0,5.2-2.3,5.2-5.2V25.1C63.9,23.5,63.2,22.2,62.2,21.2z"
	/>
</svg>
